<svg height="800px" width="800px" version="1.1" id="Capa_1" xmlns="http://www.w3.org/2000/svg" xmlns:xlink="http://www.w3.org/1999/xlink" 
	 viewBox="0 0 58 58" xml:space="preserve">
<path style="fill:#E4ECF4;" d="M29,0C19.214,0,10.567,4.852,5.316,12.276L8,21l3.925-10.206c0.309-0.803,1.477-0.7,1.64,0.146L18,34
	l4.025-20.929c0.183-0.95,1.555-0.915,1.689,0.043L29,45l4.358-31.48c0.113-0.973,1.506-1.024,1.691-0.063L39,34l4.435-23.06
	c0.163-0.845,1.331-0.949,1.64-0.146L49,21l2.979-9.682C46.677,4.437,38.359,0,29,0z"/>
<g>
	<path style="fill:#84B5CB;" d="M51.979,11.318L49,21l-3.925-10.206c-0.309-0.803-1.477-0.7-1.64,0.146L39,34l-3.951-20.543
		c-0.185-0.961-1.578-0.91-1.691,0.063L29,45l-5.286-31.886c-0.134-0.959-1.506-0.994-1.689-0.043L18,34l-4.435-23.06
		c-0.163-0.845-1.331-0.949-1.64-0.146L8,21l-2.684-8.724C1.972,17.003,0,22.769,0,29c0,16.016,12.984,29,29,29s29-12.984,29-29
		C58,22.342,55.751,16.213,51.979,11.318z"/>
</g>
</svg>